# xmcd
#
# Track frame offsets:
# 150
# 20310
# 30637
# 50707
# 63905
# 78155
# 90337
# 110542
# 126615
# 144455
# 153290
# 160500
# 175070
# 175230
# 201600
# 217807
# 237080
# 243862
#
# Disc length: 3500 seconds
#
# Revision: 0
# Processed by: cddbd v1.4PL0 Copyright (c) Steve Scherf et al.
# Submitted via: Audion 2.6.0 (http://www.panic.com/audion/)
#
DISCID=e60daa12
DTITLE= O Brother, Where Art Thou?
DYEAR=1900
DGENRE=
TTITLE0=Po Lazarus - J. Carter and Prisoners
TTITLE1=Big Rock Candy Mountain - Harry McLintock
TTITLE2=You Are My Sunshine - Norman Blake
TTITLE3=Down to the River to Pray - Alison Krauss
TTITLE4=I am a Man of Constant Sorrow - Soggy Bottom Boys and Dan Tyminski
TTITLE5=Hard Time Killing Floor Blues - Chris Thomas King
TTITLE6=Man of Constant Sorrow - Norman Blake
TTITLE7=Keep on the Sunny Side - The Whites
TTITLE8=I'll Fly Away - Gillian Welch and Alison Krauss
TTITLE9=Don't Leave Nobody but the Baby - Gillian Welsh, Alison Krauss, and Emmylou Harris
TTITLE10=In the Highways - The Peasall Sisters
TTITLE11=I am Weary - The Cox Family
TTITLE12=I am a Man of Constant Sorrow - John Hartford
TTITLE13=O Death - Ralph Stanley
TTITLE14=In the Jailhouse Now - Soggy Bottom Boys and Tim Blake Nelson
TTITLE15=I am a Man of Constant Sorrow - Soggy Bottom Boys and Dan Tyminski
TTITLE16=Indian War Whoop - John Hartford
TTITLE17=Lonesome Valley - The Fairfield Four
EXTD=
EXTT0=
EXTT1=
EXTT2=
EXTT3=
EXTT4=
EXTT5=
EXTT6=
EXTT7=
EXTT8=
EXTT9=
EXTT10=
EXTT11=
EXTT12=
EXTT13=
EXTT14=
EXTT15=
EXTT16=
EXTT17=
PLAYORDER=
